<svg width="24" height="24" viewBox="0 0 24 24" fill="none" xmlns="http://www.w3.org/2000/svg">
<mask id="mask0_35_1582" style="mask-type:alpha" maskUnits="userSpaceOnUse" x="0" y="0" width="24" height="24">
<rect width="24" height="24" fill="#D9D9D9"/>
</mask>
<g mask="url(#mask0_35_1582)">
<mask id="mask1_35_1582" style="mask-type:alpha" maskUnits="userSpaceOnUse" x="0" y="0" width="24" height="24">
<rect width="24" height="24" fill="#D9D9D9"/>
</mask>
<g mask="url(#mask1_35_1582)">
<path d="M15.4152 13.325H4.84447C4.47647 13.325 4.16364 13.1962 3.90597 12.9385C3.6483 12.681 3.51947 12.3682 3.51947 12C3.51947 11.6318 3.6483 11.319 3.90597 11.0615C4.16364 10.8038 4.47647 10.675 4.84447 10.675H15.4152L13.088 8.34774C12.8315 8.09124 12.7051 7.78257 12.7087 7.42174C12.7122 7.0609 12.8386 6.75224 13.088 6.49574C13.3445 6.23907 13.655 6.10899 14.0195 6.10549C14.384 6.10182 14.6945 6.22824 14.951 6.48474L19.5402 11.0597C19.6684 11.1881 19.7651 11.3341 19.8305 11.4977C19.8956 11.6616 19.9282 11.829 19.9282 12C19.9282 12.171 19.8956 12.3384 19.8305 12.5022C19.7651 12.6659 19.6684 12.8119 19.5402 12.9402L14.951 17.5152C14.6945 17.7717 14.384 17.8982 14.0195 17.8945C13.655 17.891 13.3445 17.7609 13.088 17.5042C12.8386 17.2477 12.7122 16.9391 12.7087 16.5782C12.7051 16.2174 12.8315 15.9087 13.088 15.6522L15.4152 13.325Z" fill="#1C1B1F"/>
</g>
</g>
</svg>
