<svg width="24" height="24" viewBox="0 0 24 24" fill="none" xmlns="http://www.w3.org/2000/svg">
<mask id="mask0_12_243" style="mask-type:alpha" maskUnits="userSpaceOnUse" x="0" y="0" width="24" height="24">
<rect width="24" height="24" fill="#D9D9D9"/>
</mask>
<g mask="url(#mask0_12_243)">
<mask id="mask1_12_243" style="mask-type:alpha" maskUnits="userSpaceOnUse" x="0" y="0" width="24" height="24">
<rect width="24" height="24" fill="#D9D9D9"/>
</mask>
<g mask="url(#mask1_12_243)">
<path d="M2.51947 18.7208V14.3393C2.51947 13.9711 2.6483 13.6582 2.90597 13.4005C3.16364 13.143 3.47647 13.0143 3.84447 13.0143H9.67497C10.0431 13.0143 10.356 13.143 10.6135 13.4005C10.8711 13.6582 11 13.9711 11 14.3393V18.7208C11 19.0888 10.8711 19.4016 10.6135 19.6593C10.356 19.9169 10.0431 20.0458 9.67497 20.0458H3.84447C3.47647 20.0458 3.16364 19.9169 2.90597 19.6593C2.6483 19.4016 2.51947 19.0888 2.51947 18.7208ZM13 18.7208V14.3393C13 13.9711 13.1288 13.6582 13.3865 13.4005C13.644 13.143 13.9568 13.0143 14.325 13.0143H20.1555C20.5235 13.0143 20.8363 13.143 21.094 13.4005C21.3516 13.6582 21.4805 13.9711 21.4805 14.3393V18.7208C21.4805 19.0888 21.3516 19.4016 21.094 19.6593C20.8363 19.9169 20.5235 20.0458 20.1555 20.0458H14.325C13.9568 20.0458 13.644 19.9169 13.3865 19.6593C13.1288 19.4016 13 19.0888 13 18.7208ZM2.51947 9.689V5.27925C2.51947 4.91125 2.6483 4.59842 2.90597 4.34075C3.16364 4.08309 3.47647 3.95425 3.84447 3.95425H20.1555C20.5235 3.95425 20.8363 4.08309 21.094 4.34075C21.3516 4.59842 21.4805 4.91125 21.4805 5.27925V9.689C21.4805 10.0572 21.3516 10.3701 21.094 10.6278C20.8363 10.8854 20.5235 11.0143 20.1555 11.0143H3.84447C3.47647 11.0143 3.16364 10.8854 2.90597 10.6278C2.6483 10.3701 2.51947 10.0572 2.51947 9.689Z" fill="#1C1B1F"/>
</g>
</g>
</svg>
