<svg width="24" height="24" viewBox="0 0 24 24" fill="none" xmlns="http://www.w3.org/2000/svg">
<mask id="mask0_9_112" style="mask-type:alpha" maskUnits="userSpaceOnUse" x="0" y="0" width="24" height="24">
<rect width="24" height="24" fill="#D9D9D9"/>
</mask>
<g mask="url(#mask0_9_112)">
<mask id="mask1_9_112" style="mask-type:alpha" maskUnits="userSpaceOnUse" x="0" y="0" width="24" height="24">
<rect width="24" height="24" fill="#D9D9D9"/>
</mask>
<g mask="url(#mask1_9_112)">
<path d="M5.16947 22.4805C4.43114 22.4805 3.80489 22.2234 3.29072 21.7092C2.77655 21.1951 2.51947 20.5688 2.51947 19.8305V6.1695C2.51947 5.43117 2.77655 4.80492 3.29072 4.29075C3.80489 3.77658 4.43114 3.5195 5.16947 3.5195H5.99997V2.675C5.99997 2.354 6.11464 2.08117 6.34397 1.8565C6.5733 1.63183 6.84847 1.5195 7.16947 1.5195C7.49047 1.5195 7.7633 1.63183 7.98797 1.8565C8.21264 2.08117 8.32497 2.354 8.32497 2.675V3.5195H15.675V2.675C15.675 2.354 15.7896 2.08117 16.019 1.8565C16.2483 1.63183 16.5235 1.5195 16.8445 1.5195C17.1655 1.5195 17.4383 1.63183 17.663 1.8565C17.8876 2.08117 18 2.354 18 2.675V3.5195H18.8305C19.5688 3.5195 20.1951 3.77658 20.7092 4.29075C21.2234 4.80492 21.4805 5.43117 21.4805 6.1695V19.8305C21.4805 20.5688 21.2234 21.1951 20.7092 21.7092C20.1951 22.2234 19.5688 22.4805 18.8305 22.4805H5.16947ZM5.16947 19.8305H18.8305V10H5.16947V19.8305ZM12 14.113C11.6846 14.113 11.4203 14.0063 11.207 13.793C10.9936 13.5797 10.887 13.3153 10.887 13C10.887 12.6847 10.9936 12.4203 11.207 12.207C11.4203 11.9937 11.6846 11.887 12 11.887C12.3153 11.887 12.5796 11.9937 12.793 12.207C13.0063 12.4203 13.113 12.6847 13.113 13C13.113 13.3153 13.0063 13.5797 12.793 13.793C12.5796 14.0063 12.3153 14.113 12 14.113ZM7.99997 14.113C7.68464 14.113 7.4203 14.0063 7.20697 13.793C6.99364 13.5797 6.88697 13.3153 6.88697 13C6.88697 12.6847 6.99364 12.4203 7.20697 12.207C7.4203 11.9937 7.68464 11.887 7.99997 11.887C8.3153 11.887 8.57964 11.9937 8.79297 12.207C9.0063 12.4203 9.11297 12.6847 9.11297 13C9.11297 13.3153 9.0063 13.5797 8.79297 13.793C8.57964 14.0063 8.3153 14.113 7.99997 14.113ZM16 14.113C15.6978 14.113 15.4367 14.0063 15.2167 13.793C14.9969 13.5797 14.887 13.3153 14.887 13C14.887 12.6847 14.9969 12.4203 15.2167 12.207C15.4367 11.9937 15.7001 11.887 16.007 11.887C16.314 11.887 16.5751 11.9937 16.7902 12.207C17.0054 12.4203 17.113 12.6847 17.113 13C17.113 13.3153 17.0063 13.5797 16.793 13.793C16.5796 14.0063 16.3153 14.113 16 14.113ZM12 18.113C11.6846 18.113 11.4203 18.0031 11.207 17.7833C10.9936 17.5633 10.887 17.2998 10.887 16.993C10.887 16.686 10.9936 16.4249 11.207 16.2098C11.4203 15.9946 11.6846 15.887 12 15.887C12.3153 15.887 12.5796 15.9937 12.793 16.207C13.0063 16.4203 13.113 16.6847 13.113 17C13.113 17.3022 13.0063 17.5633 12.793 17.7833C12.5796 18.0031 12.3153 18.113 12 18.113ZM7.99997 18.113C7.68464 18.113 7.4203 18.0031 7.20697 17.7833C6.99364 17.5633 6.88697 17.2998 6.88697 16.993C6.88697 16.686 6.99364 16.4249 7.20697 16.2098C7.4203 15.9946 7.68464 15.887 7.99997 15.887C8.3153 15.887 8.57964 15.9937 8.79297 16.207C9.0063 16.4203 9.11297 16.6847 9.11297 17C9.11297 17.3022 9.0063 17.5633 8.79297 17.7833C8.57964 18.0031 8.3153 18.113 7.99997 18.113ZM16 18.113C15.6978 18.113 15.4367 18.0031 15.2167 17.7833C14.9969 17.5633 14.887 17.2998 14.887 16.993C14.887 16.686 14.9969 16.4249 15.2167 16.2098C15.4367 15.9946 15.7001 15.887 16.007 15.887C16.314 15.887 16.5751 15.9937 16.7902 16.207C17.0054 16.4203 17.113 16.6847 17.113 17C17.113 17.3022 17.0063 17.5633 16.793 17.7833C16.5796 18.0031 16.3153 18.113 16 18.113Z" fill="#1C1B1F"/>
</g>
</g>
</svg>
