<svg width="24" height="24" viewBox="0 0 24 24" fill="none" xmlns="http://www.w3.org/2000/svg">
<mask id="mask0_9_117" style="mask-type:alpha" maskUnits="userSpaceOnUse" x="0" y="0" width="24" height="24">
<rect width="24" height="24" fill="#D9D9D9"/>
</mask>
<g mask="url(#mask0_9_117)">
<mask id="mask1_9_117" style="mask-type:alpha" maskUnits="userSpaceOnUse" x="0" y="0" width="24" height="24">
<rect width="24" height="24" fill="#D9D9D9"/>
</mask>
<g mask="url(#mask1_9_117)">
<path d="M11.3055 14.7575L7.35549 10.8075C7.28665 10.7387 7.23499 10.6657 7.20049 10.5885C7.16615 10.5113 7.14899 10.43 7.14899 10.3445C7.14899 10.1735 7.21124 10.0192 7.33574 9.8815C7.4604 9.74384 7.62132 9.675 7.81849 9.675H16.1815C16.3787 9.675 16.5396 9.74384 16.6642 9.8815C16.7887 10.0192 16.851 10.1735 16.851 10.3445C16.851 10.3967 16.7822 10.551 16.6445 10.8075L12.6945 14.7575C12.5923 14.8598 12.4831 14.9323 12.3667 14.975C12.2506 15.0178 12.1283 15.0393 12 15.0393C11.8717 15.0393 11.7494 15.0178 11.6332 14.975C11.5169 14.9323 11.4077 14.8598 11.3055 14.7575Z" fill="#1C1B1F"/>
</g>
</g>
</svg>
