<svg width="24" height="24" viewBox="0 0 24 24" fill="none" xmlns="http://www.w3.org/2000/svg">
<mask id="mask0_26_986" style="mask-type:alpha" maskUnits="userSpaceOnUse" x="0" y="0" width="24" height="24">
<rect width="24" height="24" fill="#D9D9D9"/>
</mask>
<g mask="url(#mask0_26_986)">
<mask id="mask1_26_986" style="mask-type:alpha" maskUnits="userSpaceOnUse" x="0" y="0" width="24" height="24">
<rect width="24" height="24" fill="#D9D9D9"/>
</mask>
<g mask="url(#mask1_26_986)">
<path d="M14.0142 13.6403L15.476 15.1023C15.697 15.3232 15.9704 15.4313 16.2962 15.4265C16.6219 15.4218 16.8952 15.309 17.1162 15.088C17.3372 14.867 17.4477 14.5937 17.4477 14.268C17.4477 13.9422 17.3372 13.6687 17.1162 13.4478L15.6542 12L17.1162 10.538C17.3372 10.317 17.4477 10.0437 17.4477 9.718C17.4477 9.39217 17.3372 9.11875 17.1162 8.89775C16.8952 8.67675 16.6219 8.56625 16.2962 8.56625C15.9704 8.56625 15.697 8.67675 15.476 8.89775L14.0142 10.3598L12.5522 8.89775C12.3312 8.67675 12.0602 8.56625 11.7392 8.56625C11.4181 8.56625 11.147 8.67675 10.926 8.89775C10.705 9.11875 10.5945 9.39217 10.5945 9.718C10.5945 10.0437 10.705 10.317 10.926 10.538L12.374 12L10.912 13.462C10.691 13.683 10.5828 13.954 10.5875 14.275C10.5922 14.596 10.705 14.867 10.926 15.088C11.147 15.309 11.4204 15.4195 11.7462 15.4195C12.0719 15.4195 12.3452 15.309 12.5662 15.088L14.0142 13.6403ZM9.16949 20.4805C8.74932 20.4805 8.3504 20.3861 7.97274 20.1973C7.59524 20.0086 7.28182 19.7468 7.03249 19.412L2.70224 13.5815C2.35074 13.109 2.17499 12.5818 2.17499 12C2.17499 11.4182 2.35074 10.891 2.70224 10.4185L7.03249 4.588C7.28182 4.25317 7.59524 3.99142 7.97274 3.80275C8.3504 3.61392 8.74932 3.5195 9.16949 3.5195H19.8305C20.5688 3.5195 21.1951 3.77658 21.7092 4.29075C22.2234 4.80492 22.4805 5.43117 22.4805 6.1695V17.8305C22.4805 18.5688 22.2234 19.1951 21.7092 19.7092C21.1951 20.2234 20.5688 20.4805 19.8305 20.4805H9.16949Z" fill="#1C1B1F"/>
</g>
</g>
</svg>
