<svg width="24" height="24" viewBox="0 0 24 24" fill="none" xmlns="http://www.w3.org/2000/svg">
<mask id="mask0_18_497" style="mask-type:alpha" maskUnits="userSpaceOnUse" x="0" y="0" width="24" height="24">
<rect width="24" height="24" fill="#D9D9D9"/>
</mask>
<g mask="url(#mask0_18_497)">
<mask id="mask1_18_497" style="mask-type:alpha" maskUnits="userSpaceOnUse" x="0" y="0" width="24" height="24">
<rect width="24" height="24" fill="#D9D9D9"/>
</mask>
<g mask="url(#mask1_18_497)">
<path d="M10.099 15.226C9.7308 15.226 9.41789 15.0973 9.16022 14.8398C8.90272 14.5821 8.77397 14.2692 8.77397 13.901V11.7445C8.77397 11.3932 8.84039 11.0566 8.97322 10.7348C9.10622 10.4131 9.29739 10.1276 9.54672 9.87825L17.737 1.70225C18.0028 1.43625 18.2985 1.23909 18.624 1.11075C18.9493 0.982586 19.2794 0.918503 19.6142 0.918503C19.9562 0.918503 20.2881 0.982586 20.6097 1.11075C20.9316 1.23909 21.2254 1.43625 21.4912 1.70225L22.2977 2.5195C22.5564 2.7855 22.7499 3.07934 22.8782 3.401C23.0066 3.72284 23.0707 4.05109 23.0707 4.38575C23.0707 4.72059 23.0084 5.05125 22.8837 5.37775C22.7591 5.70425 22.5637 6.00042 22.2977 6.26625L14.1217 14.4425C13.8724 14.6917 13.5869 14.8846 13.2652 15.0213C12.9434 15.1578 12.6068 15.226 12.2555 15.226H10.099ZM19.4305 5.78575L20.8412 4.38575L19.625 3.18375L18.2142 4.5695L19.4305 5.78575ZM5.16947 21.4805C4.43114 21.4805 3.80489 21.2234 3.29072 20.7093C2.77655 20.1951 2.51947 19.5688 2.51947 18.8305V5.1695C2.51947 4.43117 2.77655 3.80492 3.29072 3.29075C3.80489 2.77659 4.43114 2.5195 5.16947 2.5195H10.8782C11.1776 2.5195 11.4305 2.59667 11.637 2.751C11.8435 2.90534 11.9978 3.1025 12.1 3.3425C12.2021 3.58234 12.2336 3.82925 12.1945 4.08325C12.1553 4.33725 12.0289 4.57109 11.8152 4.78475L7.54672 9.05325C7.29739 9.30259 7.10622 9.58809 6.97322 9.90975C6.84039 10.2316 6.77397 10.5682 6.77397 10.9195V14.576C6.77397 15.3145 7.03097 15.9408 7.54497 16.455C8.05914 16.969 8.68547 17.226 9.42397 17.226H13.0837C13.4351 17.226 13.7716 17.1596 14.0935 17.0268C14.4151 16.8938 14.7006 16.7026 14.95 16.4533L19.2152 12.188C19.4289 11.9743 19.6627 11.8479 19.9167 11.8088C20.1707 11.7696 20.4176 11.8011 20.6575 11.9033C20.8975 12.0054 21.0946 12.1598 21.249 12.3663C21.4033 12.5728 21.4805 12.8257 21.4805 13.125V18.8305C21.4805 19.5688 21.2234 20.1951 20.7092 20.7093C20.1951 21.2234 19.5688 21.4805 18.8305 21.4805H5.16947Z" fill="#1C1B1F"/>
</g>
</g>
</svg>
