<svg width="24" height="24" viewBox="0 0 24 24" fill="none" xmlns="http://www.w3.org/2000/svg">
<mask id="mask0_35_1622" style="mask-type:alpha" maskUnits="userSpaceOnUse" x="0" y="0" width="24" height="24">
<rect width="24" height="24" fill="#D9D9D9"/>
</mask>
<g mask="url(#mask0_35_1622)">
<mask id="mask1_35_1622" style="mask-type:alpha" maskUnits="userSpaceOnUse" x="0" y="0" width="24" height="24">
<rect width="24" height="24" fill="#D9D9D9"/>
</mask>
<g mask="url(#mask1_35_1622)">
<path d="M14.5 18C13.8 18 13.2083 17.7583 12.725 17.275C12.2416 16.7917 12 16.2 12 15.5C12 14.8 12.2416 14.2083 12.725 13.725C13.2083 13.2417 13.8 13 14.5 13C15.2 13 15.7916 13.2417 16.275 13.725C16.7583 14.2083 17 14.8 17 15.5C17 16.2 16.7583 16.7917 16.275 17.275C15.7916 17.7583 15.2 18 14.5 18ZM5.16947 22.4805C4.43114 22.4805 3.80489 22.2234 3.29072 21.7092C2.77655 21.1951 2.51947 20.5688 2.51947 19.8305V6.1695C2.51947 5.43117 2.77655 4.80492 3.29072 4.29075C3.80489 3.77658 4.43114 3.5195 5.16947 3.5195H5.99997V2.675C5.99997 2.354 6.11464 2.08117 6.34397 1.8565C6.5733 1.63183 6.84847 1.5195 7.16947 1.5195C7.49047 1.5195 7.7633 1.63183 7.98797 1.8565C8.21264 2.08117 8.32497 2.354 8.32497 2.675V3.5195H15.675V2.675C15.675 2.354 15.7896 2.08117 16.019 1.8565C16.2483 1.63183 16.5235 1.5195 16.8445 1.5195C17.1655 1.5195 17.4383 1.63183 17.663 1.8565C17.8876 2.08117 18 2.354 18 2.675V3.5195H18.8305C19.5688 3.5195 20.1951 3.77658 20.7092 4.29075C21.2234 4.80492 21.4805 5.43117 21.4805 6.1695V19.8305C21.4805 20.5688 21.2234 21.1951 20.7092 21.7092C20.1951 22.2234 19.5688 22.4805 18.8305 22.4805H5.16947ZM5.16947 19.8305H18.8305V10H5.16947V19.8305Z" fill="#1C1B1F"/>
</g>
</g>
</svg>
