<svg width="24" height="24" viewBox="0 0 24 24" fill="none" xmlns="http://www.w3.org/2000/svg">
<mask id="mask0_9_109" style="mask-type:alpha" maskUnits="userSpaceOnUse" x="0" y="0" width="24" height="24">
<rect width="24" height="24" fill="#D9D9D9"/>
</mask>
<g mask="url(#mask0_9_109)">
<mask id="mask1_9_109" style="mask-type:alpha" maskUnits="userSpaceOnUse" x="0" y="0" width="24" height="24">
<rect width="24" height="24" fill="#D9D9D9"/>
</mask>
<g mask="url(#mask1_9_109)">
<path d="M5.13801 20.862C4.74168 20.862 4.40293 20.7214 4.12176 20.4403C3.8406 20.1591 3.70001 19.8203 3.70001 19.424V13.862H3.12376C2.72743 13.862 2.39101 13.7214 2.11451 13.4402C1.83818 13.1591 1.70001 12.8203 1.70001 12.424C1.70001 12.0275 1.83818 11.6911 2.11451 11.4148C2.39101 11.1383 2.72743 11 3.12376 11H7.13801C7.53435 11 7.87076 11.1406 8.14726 11.4218C8.42376 11.7029 8.56201 12.0417 8.56201 12.438C8.56201 12.8345 8.42376 13.1709 8.14726 13.4473C7.87076 13.7238 7.53435 13.862 7.13801 13.862H6.56201V19.438C6.56201 19.8345 6.42376 20.1709 6.14726 20.4473C5.87076 20.7238 5.53435 20.862 5.13801 20.862ZM5.13801 9C4.74168 9 4.40293 8.85942 4.12176 8.57825C3.8406 8.29708 3.70001 7.95833 3.70001 7.562V4.562C3.70001 4.1655 3.8406 3.82908 4.12176 3.55275C4.40293 3.27625 4.74168 3.138 5.13801 3.138C5.53435 3.138 5.87076 3.27625 6.14726 3.55275C6.42376 3.82908 6.56201 4.1655 6.56201 4.562V7.576C6.56201 7.9725 6.42376 8.30892 6.14726 8.58525C5.87076 8.86175 5.53435 9 5.13801 9ZM9.98576 9C9.58943 9 9.25301 8.85942 8.97651 8.57825C8.70018 8.29708 8.56201 7.95833 8.56201 7.562C8.56201 7.1655 8.7026 6.82908 8.98376 6.55275C9.26493 6.27625 9.60368 6.138 10 6.138H10.562V4.576C10.562 4.17967 10.7026 3.84092 10.9838 3.55975C11.2649 3.27858 11.6037 3.138 12 3.138C12.3963 3.138 12.7351 3.27858 13.0163 3.55975C13.2974 3.84092 13.438 4.17967 13.438 4.576V6.138H14.0143C14.4106 6.138 14.747 6.27858 15.0235 6.55975C15.2998 6.84092 15.438 7.17967 15.438 7.576C15.438 7.9725 15.2998 8.30892 15.0235 8.58525C14.747 8.86175 14.4106 9 14.0143 9H9.98576ZM12 20.862C11.6037 20.862 11.2649 20.7214 10.9838 20.4403C10.7026 20.1591 10.562 19.8203 10.562 19.424V12.438C10.562 12.0417 10.7026 11.7029 10.9838 11.4218C11.2649 11.1406 11.6037 11 12 11C12.3963 11 12.7351 11.1406 13.0163 11.4218C13.2974 11.7029 13.438 12.0417 13.438 12.438V19.424C13.438 19.8203 13.2974 20.1591 13.0163 20.4403C12.7351 20.7214 12.3963 20.862 12 20.862ZM18.8763 20.862C18.4798 20.862 18.1409 20.7214 17.8598 20.4403C17.5786 20.1591 17.438 19.8203 17.438 19.424V17.862H16.862C16.4657 17.862 16.1293 17.7214 15.8528 17.4402C15.5763 17.1591 15.438 16.8203 15.438 16.424C15.438 16.0275 15.5763 15.6911 15.8528 15.4148C16.1293 15.1383 16.4657 15 16.862 15H20.8763C21.2726 15 21.609 15.1406 21.8855 15.4218C22.1618 15.7029 22.3 16.0417 22.3 16.438C22.3 16.8345 22.1618 17.1709 21.8855 17.4473C21.609 17.7238 21.2726 17.862 20.8763 17.862H20.3V19.438C20.3 19.8345 20.1618 20.1709 19.8855 20.4473C19.609 20.7238 19.2726 20.862 18.8763 20.862ZM18.8763 13C18.4798 13 18.1409 12.8617 17.8598 12.5852C17.5786 12.3089 17.438 11.9725 17.438 11.576V4.562C17.438 4.1655 17.5786 3.82908 17.8598 3.55275C18.1409 3.27625 18.4798 3.138 18.8763 3.138C19.2726 3.138 19.609 3.27625 19.8855 3.55275C20.1618 3.82908 20.3 4.1655 20.3 4.562V11.576C20.3 11.9725 20.1618 12.3089 19.8855 12.5852C19.609 12.8617 19.2726 13 18.8763 13Z" fill="#1C1B1F"/>
</g>
</g>
</svg>
