<svg width="24" height="24" viewBox="0 0 24 24" fill="none" xmlns="http://www.w3.org/2000/svg">
<mask id="mask0_26_496" style="mask-type:alpha" maskUnits="userSpaceOnUse" x="0" y="0" width="24" height="24">
<rect width="24" height="24" fill="#D9D9D9"/>
</mask>
<g mask="url(#mask0_26_496)">
<mask id="mask1_26_496" style="mask-type:alpha" maskUnits="userSpaceOnUse" x="0" y="0" width="24" height="24">
<rect width="24" height="24" fill="#D9D9D9"/>
</mask>
<g mask="url(#mask1_26_496)">
<path d="M10.788 13.212V15.901C10.788 16.2445 10.9041 16.5323 11.1365 16.7645C11.3688 16.9968 11.6566 17.113 12 17.113C12.3433 17.113 12.6311 16.9968 12.8635 16.7645C13.0958 16.5323 13.212 16.2445 13.212 15.901V13.212H15.901C16.2445 13.212 16.5323 13.0958 16.7645 12.8635C16.9968 12.6312 17.113 12.3433 17.113 12C17.113 11.6567 16.9968 11.3688 16.7645 11.1365C16.5323 10.9042 16.2445 10.788 15.901 10.788H13.212V8.099C13.212 7.7555 13.0958 7.46767 12.8635 7.2355C12.6311 7.00317 12.3433 6.887 12 6.887C11.6566 6.887 11.3688 7.00317 11.1365 7.2355C10.9041 7.46767 10.788 7.7555 10.788 8.099V10.788H8.09897C7.75547 10.788 7.46764 10.9042 7.23547 11.1365C7.00314 11.3688 6.88697 11.6567 6.88697 12C6.88697 12.3433 7.00314 12.6312 7.23547 12.8635C7.46764 13.0958 7.75547 13.212 8.09897 13.212H10.788ZM5.16947 21.4805C4.43114 21.4805 3.80489 21.2234 3.29072 20.7092C2.77655 20.1951 2.51947 19.5688 2.51947 18.8305V5.1695C2.51947 4.43117 2.77655 3.80492 3.29072 3.29075C3.80489 2.77658 4.43114 2.5195 5.16947 2.5195H18.8305C19.5688 2.5195 20.1951 2.77658 20.7092 3.29075C21.2234 3.80492 21.4805 4.43117 21.4805 5.1695V18.8305C21.4805 19.5688 21.2234 20.1951 20.7092 20.7092C20.1951 21.2234 19.5688 21.4805 18.8305 21.4805H5.16947Z" fill="#1C1B1F"/>
</g>
</g>
</svg>
