<svg width="24" height="24" viewBox="0 0 24 24" fill="none" xmlns="http://www.w3.org/2000/svg">
<mask id="mask0_12_248" style="mask-type:alpha" maskUnits="userSpaceOnUse" x="0" y="0" width="24" height="24">
<rect width="24" height="24" fill="#D9D9D9"/>
</mask>
<g mask="url(#mask0_12_248)">
<mask id="mask1_12_248" style="mask-type:alpha" maskUnits="userSpaceOnUse" x="0" y="0" width="24" height="24">
<rect width="24" height="24" fill="#D9D9D9"/>
</mask>
<g mask="url(#mask1_12_248)">
<path d="M20.9718 15.9858V10.3403L13.261 14.5315C12.8574 14.7453 12.437 14.8546 12 14.8593C11.563 14.8639 11.1427 14.7547 10.739 14.5315L2.72727 10.1575C2.48743 10.0293 2.31352 9.86434 2.20552 9.6625C2.09752 9.46067 2.04352 9.23984 2.04352 9C2.04352 8.76017 2.09752 8.53934 2.20552 8.3375C2.31352 8.13567 2.48743 7.97067 2.72727 7.8425L10.739 3.4825C10.9362 3.371 11.1399 3.28734 11.35 3.2315C11.5602 3.17567 11.7769 3.14775 12 3.14775C12.2232 3.14775 12.4399 3.17567 12.65 3.2315C12.8602 3.28734 13.0639 3.371 13.261 3.4825L22.7153 8.626C22.9291 8.73767 23.0983 8.89858 23.2228 9.10875C23.3474 9.31892 23.4098 9.54392 23.4098 9.78375V16C23.4098 16.3398 23.2928 16.6268 23.0588 16.861C22.8246 17.095 22.5376 17.212 22.1978 17.212C21.8579 17.212 21.5687 17.0926 21.33 16.8538C21.0912 16.6151 20.9718 16.3258 20.9718 15.9858ZM10.739 20.5175L6.19127 18.0718C5.75427 17.8319 5.41352 17.5042 5.16902 17.0885C4.92452 16.673 4.80227 16.2207 4.80227 15.7315V12.525L10.739 15.7435C11.1427 15.9573 11.563 16.0643 12 16.0643C12.437 16.0643 12.8574 15.9573 13.261 15.7435L19.1978 12.525V15.7315C19.1978 16.2207 19.0755 16.673 18.831 17.0885C18.5865 17.5042 18.2458 17.8319 17.8088 18.0718L13.261 20.5175C13.0639 20.629 12.8602 20.7103 12.65 20.7615C12.4399 20.8125 12.2232 20.838 12 20.838C11.7769 20.838 11.5602 20.8125 11.35 20.7615C11.1399 20.7103 10.9362 20.629 10.739 20.5175Z" fill="#1C1B1F"/>
</g>
</g>
</svg>
