<svg width="24" height="24" viewBox="0 0 24 24" fill="none" xmlns="http://www.w3.org/2000/svg">
<mask id="mask0_12_238" style="mask-type:alpha" maskUnits="userSpaceOnUse" x="0" y="0" width="24" height="24">
<rect width="24" height="24" fill="#D9D9D9"/>
</mask>
<g mask="url(#mask0_12_238)">
<mask id="mask1_12_238" style="mask-type:alpha" maskUnits="userSpaceOnUse" x="0" y="0" width="24" height="24">
<rect width="24" height="24" fill="#D9D9D9"/>
</mask>
<g mask="url(#mask1_12_238)">
<path d="M12 11.7598C10.7586 11.7598 9.70155 11.3233 8.82872 10.4505C7.95589 9.57767 7.51947 8.52059 7.51947 7.27925C7.51947 6.03792 7.95589 4.98325 8.82872 4.11525C9.70155 3.24709 10.7586 2.813 12 2.813C13.2413 2.813 14.2984 3.24709 15.1712 4.11525C16.0441 4.98325 16.4805 6.03792 16.4805 7.27925C16.4805 8.52059 16.0441 9.57767 15.1712 10.4505C14.2984 11.3233 13.2413 11.7598 12 11.7598ZM3.51947 18.0708V17.412C3.51947 16.7605 3.68889 16.1596 4.02772 15.6093C4.36639 15.0589 4.8198 14.6399 5.38797 14.3523C6.44964 13.8261 7.53264 13.4292 8.63697 13.1615C9.7413 12.8937 10.8623 12.7598 12 12.7598C13.1565 12.7598 14.2869 12.8913 15.3912 13.1543C16.4956 13.4174 17.5691 13.812 18.612 14.338C19.1801 14.6257 19.6336 15.0423 19.9722 15.588C20.3111 16.1337 20.4805 16.7417 20.4805 17.412V18.0708C20.4805 18.8091 20.2234 19.4353 19.7092 19.9495C19.1951 20.4637 18.5688 20.7208 17.8305 20.7208H6.16947C5.43114 20.7208 4.80489 20.4637 4.29072 19.9495C3.77655 19.4353 3.51947 18.8091 3.51947 18.0708Z" fill="#1C1B1F"/>
</g>
</g>
</svg>
