<svg width="24" height="24" viewBox="0 0 24 24" fill="none" xmlns="http://www.w3.org/2000/svg">
<mask id="mask0_18_481" style="mask-type:alpha" maskUnits="userSpaceOnUse" x="0" y="0" width="24" height="24">
<rect width="24" height="24" fill="#D9D9D9"/>
</mask>
<g mask="url(#mask0_18_481)">
<mask id="mask1_18_481" style="mask-type:alpha" maskUnits="userSpaceOnUse" x="0" y="0" width="24" height="24">
<rect width="24" height="24" fill="#D9D9D9"/>
</mask>
<g mask="url(#mask1_18_481)">
<path d="M6.84451 21.4805C6.10617 21.4805 5.47992 21.2234 4.96576 20.7093C4.45159 20.1951 4.19451 19.5688 4.19451 18.8305V6.1555C3.82634 6.1555 3.51351 6.02667 3.25601 5.769C2.99834 5.51133 2.86951 5.1985 2.86951 4.8305C2.86951 4.46233 2.99834 4.14942 3.25601 3.89175C3.51351 3.63425 3.82634 3.5055 4.19451 3.5055H8.67501C8.67501 3.13733 8.80384 2.82442 9.06151 2.56675C9.31901 2.30925 9.63184 2.1805 10 2.1805H13.9718C14.3399 2.1805 14.6528 2.30925 14.9103 2.56675C15.1679 2.82442 15.2968 3.13733 15.2968 3.5055H19.8055C20.1737 3.5055 20.4865 3.63425 20.744 3.89175C21.0017 4.14942 21.1305 4.46233 21.1305 4.8305C21.1305 5.1985 21.0017 5.51133 20.744 5.769C20.4865 6.02667 20.1737 6.1555 19.8055 6.1555V18.8305C19.8055 19.5688 19.5484 20.1951 19.0343 20.7093C18.5201 21.2234 17.8938 21.4805 17.1555 21.4805H6.84451ZM12 14.1403L13.7445 15.8848C13.9655 16.1058 14.2389 16.2139 14.5648 16.2093C14.8904 16.2046 15.1638 16.0918 15.3848 15.8708C15.6058 15.6498 15.7163 15.3763 15.7163 15.0505C15.7163 14.7248 15.6058 14.4515 15.3848 14.2305L13.6403 12.5L15.3848 10.7555C15.6058 10.5345 15.7163 10.2611 15.7163 9.93525C15.7163 9.60958 15.6058 9.33625 15.3848 9.11525C15.1638 8.89425 14.8904 8.78375 14.5648 8.78375C14.2389 8.78375 13.9655 8.89425 13.7445 9.11525L12 10.8598L10.2555 9.11525C10.0345 8.89425 9.76351 8.78375 9.44251 8.78375C9.12134 8.78375 8.85026 8.89425 8.62926 9.11525C8.40826 9.33625 8.29776 9.60958 8.29776 9.93525C8.29776 10.2611 8.40826 10.5345 8.62926 10.7555L10.3598 12.5L8.61526 14.2445C8.39426 14.4655 8.28609 14.7365 8.29076 15.0575C8.29542 15.3787 8.40826 15.6498 8.62926 15.8708C8.85026 16.0918 9.12367 16.2023 9.44951 16.2023C9.77517 16.2023 10.0485 16.0918 10.2695 15.8708L12 14.1403Z" fill="#1C1B1F"/>
</g>
</g>
</svg>
