<svg width="24" height="24" viewBox="0 0 24 24" fill="none" xmlns="http://www.w3.org/2000/svg">
<mask id="mask0_26_1016" style="mask-type:alpha" maskUnits="userSpaceOnUse" x="0" y="0" width="24" height="24">
<rect width="24" height="24" fill="#D9D9D9"/>
</mask>
<g mask="url(#mask0_26_1016)">
<mask id="mask1_26_1016" style="mask-type:alpha" maskUnits="userSpaceOnUse" x="0" y="0" width="24" height="24">
<rect width="24" height="24" fill="#D9D9D9"/>
</mask>
<g mask="url(#mask1_26_1016)">
<path d="M10.5565 22.4805C10.0594 22.4805 9.63185 22.3188 9.27402 21.9953C8.91602 21.6716 8.70369 21.2696 8.63702 20.7893L8.41202 19.125C8.27069 19.07 8.13477 19.003 8.00427 18.924C7.87394 18.845 7.74535 18.7623 7.61852 18.676L6.08252 19.326C5.62819 19.5188 5.16919 19.5379 4.70552 19.3833C4.24169 19.2284 3.88369 18.9358 3.63152 18.5055L2.18802 15.9607C1.93585 15.5397 1.8621 15.0914 1.96677 14.6158C2.0716 14.1401 2.31785 13.7512 2.70552 13.449L4.01627 12.449C4.0091 12.37 4.00552 12.2952 4.00552 12.2245V11.7755C4.00552 11.7048 4.0091 11.63 4.01627 11.551L2.70552 10.5652C2.30835 10.2631 2.05977 9.87417 1.95977 9.3985C1.85977 8.92267 1.93585 8.46958 2.18802 8.03925L3.63152 5.50875C3.88369 5.08775 4.23927 4.7975 4.69827 4.638C5.15744 4.47867 5.61419 4.49533 6.06852 4.688L7.64677 5.338C7.7736 5.25183 7.89935 5.17158 8.02402 5.09725C8.14852 5.02292 8.27785 4.95825 8.41202 4.90325L8.63702 3.225C8.70369 2.73517 8.91602 2.32842 9.27402 2.00475C9.63185 1.68125 10.0594 1.5195 10.5565 1.5195H13.4435C13.9407 1.5195 14.3682 1.68125 14.726 2.00475C15.084 2.32842 15.2964 2.73517 15.363 3.225L15.588 4.90325C15.7294 4.95825 15.8653 5.02292 15.9958 5.09725C16.1261 5.17158 16.2547 5.25183 16.3815 5.338L17.9175 4.688C18.3719 4.49533 18.8309 4.47867 19.2945 4.638C19.7584 4.7975 20.1164 5.08775 20.3685 5.50875L21.812 8.03925C22.0642 8.46958 22.1403 8.92267 22.0403 9.3985C21.9403 9.87417 21.6917 10.2631 21.2945 10.5652L19.9695 11.551C19.9769 11.63 19.9805 11.7048 19.9805 11.7755V12C19.9805 12.079 19.9782 12.1538 19.9735 12.2245C19.9687 12.2952 19.959 12.37 19.9445 12.449L21.2695 13.4348C21.6667 13.7369 21.9153 14.1258 22.0153 14.6015C22.1153 15.0773 22.0392 15.5304 21.787 15.9607L20.3185 18.5055C20.0664 18.9265 19.7108 19.2167 19.2518 19.376C18.7926 19.5355 18.3359 19.5188 17.8815 19.326L16.3533 18.676C16.2264 18.7623 16.1007 18.845 15.976 18.924C15.8515 19.003 15.7222 19.07 15.588 19.125L15.363 20.7893C15.2964 21.2696 15.084 21.6716 14.726 21.9953C14.3682 22.3188 13.9407 22.4805 13.4435 22.4805H10.5565ZM12.0075 15.5C12.9742 15.5 13.7992 15.1583 14.4825 14.475C15.1659 13.7917 15.5075 12.9667 15.5075 12C15.5075 11.0333 15.1659 10.2083 14.4825 9.525C13.7992 8.84167 12.9742 8.5 12.0075 8.5C11.0337 8.5 10.2069 8.84167 9.52727 9.525C8.84744 10.2083 8.50752 11.0333 8.50752 12C8.50752 12.9667 8.84744 13.7917 9.52727 14.475C10.2069 15.1583 11.0337 15.5 12.0075 15.5Z" fill="#1C1B1F"/>
</g>
</g>
</svg>
