<svg width="24" height="24" viewBox="0 0 24 24" fill="none" xmlns="http://www.w3.org/2000/svg">
<mask id="mask0_26_1001" style="mask-type:alpha" maskUnits="userSpaceOnUse" x="0" y="0" width="24" height="24">
<rect width="24" height="24" fill="#D9D9D9"/>
</mask>
<g mask="url(#mask0_26_1001)">
<mask id="mask1_26_1001" style="mask-type:alpha" maskUnits="userSpaceOnUse" x="0" y="0" width="24" height="24">
<rect width="24" height="24" fill="#D9D9D9"/>
</mask>
<g mask="url(#mask1_26_1001)">
<path d="M9.52498 18L20.125 7.4L18.7142 6L9.51423 15.1893L5.26073 10.925L3.84998 12.3358L9.52498 18ZM7.64773 19.8663L1.99773 14.2163C1.73189 13.9504 1.53664 13.6566 1.41198 13.3348C1.28731 13.0131 1.22498 12.6848 1.22498 12.35C1.22498 12.0152 1.28731 11.6851 1.41198 11.3598C1.53664 11.0344 1.73189 10.7388 1.99773 10.4728L3.39773 9.07275C3.66373 8.80692 3.95756 8.60984 4.27923 8.4815C4.60106 8.35317 4.93298 8.289 5.27498 8.289C5.61698 8.289 5.94889 8.35317 6.27073 8.4815C6.59239 8.60984 6.88623 8.80692 7.15223 9.07275L9.52498 11.4455L16.837 4.10875C17.0956 3.84275 17.3876 3.64742 17.713 3.52275C18.0383 3.39809 18.3684 3.33575 18.7032 3.33575C19.0381 3.33575 19.3681 3.39809 19.6935 3.52275C20.0188 3.64742 20.3145 3.83909 20.5805 4.09775L22.0055 5.49775C22.2715 5.76375 22.4686 6.05759 22.5967 6.37925C22.7251 6.70109 22.7892 7.033 22.7892 7.375C22.7892 7.717 22.7269 8.04892 22.6022 8.37076C22.4776 8.69242 22.2822 8.98626 22.0162 9.25226L11.4022 19.8663C11.1362 20.1323 10.8406 20.3294 10.5152 20.4578C10.1899 20.5859 9.85981 20.65 9.52498 20.65C9.19014 20.65 8.86006 20.5859 8.53473 20.4578C8.20939 20.3294 7.91373 20.1323 7.64773 19.8663Z" fill="#1C1B1F"/>
</g>
</g>
</svg>
