<svg width="24" height="24" viewBox="0 0 24 24" fill="none" xmlns="http://www.w3.org/2000/svg">
<mask id="mask0_16_290" style="mask-type:alpha" maskUnits="userSpaceOnUse" x="0" y="0" width="24" height="24">
<rect width="24" height="24" fill="#D9D9D9"/>
</mask>
<g mask="url(#mask0_16_290)">
<mask id="mask1_16_290" style="mask-type:alpha" maskUnits="userSpaceOnUse" x="0" y="0" width="24" height="24">
<rect width="24" height="24" fill="#D9D9D9"/>
</mask>
<g mask="url(#mask1_16_290)">
<path d="M10.5575 12.962L8.76097 11.1792C8.52097 10.9394 8.22397 10.8218 7.86997 10.8265C7.51614 10.8313 7.21922 10.9537 6.97922 11.1935C6.73939 11.4333 6.61947 11.7279 6.61947 12.0773C6.61947 12.4264 6.73939 12.721 6.97922 12.961L9.61747 15.613C9.8833 15.879 10.1966 16.012 10.5575 16.012C10.9185 16.012 11.2319 15.879 11.4977 15.613L16.9357 10.161C17.1757 9.921 17.2933 9.624 17.2885 9.27C17.2838 8.91617 17.1616 8.61925 16.9217 8.37925C16.6819 8.13942 16.3873 8.0195 16.038 8.0195C15.6886 8.0195 15.3941 8.13942 15.1542 8.37925L10.5575 12.962ZM5.16947 21.4805C4.43114 21.4805 3.80489 21.2234 3.29072 20.7092C2.77655 20.1951 2.51947 19.5688 2.51947 18.8305V5.1695C2.51947 4.43117 2.77655 3.80492 3.29072 3.29075C3.80489 2.77658 4.43114 2.5195 5.16947 2.5195H18.8305C19.5688 2.5195 20.1951 2.77658 20.7092 3.29075C21.2234 3.80492 21.4805 4.43117 21.4805 5.1695V18.8305C21.4805 19.5688 21.2234 20.1951 20.7092 20.7092C20.1951 21.2234 19.5688 21.4805 18.8305 21.4805H5.16947Z" fill="#1C1B1F"/>
</g>
</g>
</svg>
