<svg width="24" height="24" viewBox="0 0 24 24" fill="none" xmlns="http://www.w3.org/2000/svg">
<mask id="mask0_35_1543" style="mask-type:alpha" maskUnits="userSpaceOnUse" x="0" y="0" width="24" height="24">
<rect width="24" height="24" fill="#D9D9D9"/>
</mask>
<g mask="url(#mask0_35_1543)">
<mask id="mask1_35_1543" style="mask-type:alpha" maskUnits="userSpaceOnUse" x="0" y="0" width="24" height="24">
<rect width="24" height="24" fill="#D9D9D9"/>
</mask>
<g mask="url(#mask1_35_1543)">
<path d="M12 10.8305C13.0623 10.8305 13.9663 10.4577 14.712 9.712C15.4576 8.96633 15.8305 8.06233 15.8305 7V4.1695H8.16947V7C8.16947 8.06233 8.5423 8.96633 9.28797 9.712C10.0336 10.4577 10.9376 10.8305 12 10.8305ZM4.84447 22.4805C4.47647 22.4805 4.16364 22.3517 3.90597 22.094C3.6483 21.8363 3.51947 21.5235 3.51947 21.1555C3.51947 20.7873 3.6483 20.4744 3.90597 20.2167C4.16364 19.9592 4.47647 19.8305 4.84447 19.8305H5.51947V17C5.51947 16.021 5.73105 15.0904 6.15422 14.2083C6.57739 13.3259 7.17164 12.5898 7.93697 12C7.17164 11.4102 6.57739 10.6741 6.15422 9.79175C5.73105 8.90958 5.51947 7.979 5.51947 7V4.1695H4.84447C4.47647 4.1695 4.16364 4.04075 3.90597 3.78325C3.6483 3.52558 3.51947 3.21267 3.51947 2.8445C3.51947 2.4765 3.6483 2.16367 3.90597 1.906C4.16364 1.64833 4.47647 1.5195 4.84447 1.5195H19.1555C19.5235 1.5195 19.8363 1.64833 20.094 1.906C20.3516 2.16367 20.4805 2.4765 20.4805 2.8445C20.4805 3.21267 20.3516 3.52558 20.094 3.78325C19.8363 4.04075 19.5235 4.1695 19.1555 4.1695H18.4805V7C18.4805 7.979 18.2712 8.90958 17.8527 9.79175C17.4342 10.6741 16.8376 11.4102 16.063 12C16.8376 12.5898 17.4342 13.3259 17.8527 14.2083C18.2712 15.0904 18.4805 16.021 18.4805 17V19.8305H19.1555C19.5235 19.8305 19.8363 19.9592 20.094 20.2167C20.3516 20.4744 20.4805 20.7873 20.4805 21.1555C20.4805 21.5235 20.3516 21.8363 20.094 22.094C19.8363 22.3517 19.5235 22.4805 19.1555 22.4805H4.84447Z" fill="#1C1B1F"/>
</g>
</g>
</svg>
