<svg width="24" height="24" viewBox="0 0 24 24" fill="none" xmlns="http://www.w3.org/2000/svg">
<mask id="mask0_25_140" style="mask-type:alpha" maskUnits="userSpaceOnUse" x="0" y="0" width="24" height="24">
<rect width="24" height="24" fill="#D9D9D9"/>
</mask>
<g mask="url(#mask0_25_140)">
<mask id="mask1_25_140" style="mask-type:alpha" maskUnits="userSpaceOnUse" x="0" y="0" width="24" height="24">
<rect width="24" height="24" fill="#D9D9D9"/>
</mask>
<g mask="url(#mask1_25_140)">
<path d="M13.212 11.487V8.2825C13.212 7.93917 13.0958 7.65133 12.8635 7.419C12.6311 7.18683 12.3433 7.07075 12 7.07075C11.6566 7.07075 11.3688 7.18683 11.1365 7.419C10.9041 7.65133 10.788 7.93917 10.788 8.2825V11.9325C10.788 12.113 10.8201 12.2826 10.8842 12.4412C10.9484 12.5999 11.0446 12.7427 11.1727 12.8695L14.2467 15.9435C14.4772 16.174 14.7576 16.2893 15.088 16.2893C15.4185 16.2893 15.7036 16.174 15.9435 15.9435C16.1833 15.713 16.3032 15.4278 16.3032 15.088C16.3032 14.7482 16.1833 14.4583 15.9435 14.2185L13.212 11.487ZM12 22.4805C10.5413 22.4805 9.17539 22.2058 7.90222 21.6565C6.62922 21.1072 5.52189 20.3616 4.58022 19.4198C3.63839 18.4781 2.8928 17.3708 2.34347 16.0978C1.79414 14.8246 1.51947 13.4587 1.51947 12C1.51947 10.5413 1.79414 9.17542 2.34347 7.90225C2.8928 6.62925 3.63839 5.52192 4.58022 4.58025C5.52189 3.63842 6.62922 2.89283 7.90222 2.3435C9.17539 1.79417 10.5413 1.5195 12 1.5195C13.4586 1.5195 14.8246 1.79417 16.0977 2.3435C17.3707 2.89283 18.4781 3.63842 19.4197 4.58025C20.3616 5.52192 21.1071 6.62925 21.6565 7.90225C22.2058 9.17542 22.4805 10.5413 22.4805 12C22.4805 13.4587 22.2058 14.8246 21.6565 16.0978C21.1071 17.3708 20.3616 18.4781 19.4197 19.4198C18.4781 20.3616 17.3707 21.1072 16.0977 21.6565C14.8246 22.2058 13.4586 22.4805 12 22.4805Z" fill="#1C1B1F"/>
</g>
</g>
</svg>
