<svg width="24" height="24" viewBox="0 0 24 24" fill="none" xmlns="http://www.w3.org/2000/svg">
<mask id="mask0_16_149" style="mask-type:alpha" maskUnits="userSpaceOnUse" x="0" y="0" width="24" height="24">
<rect width="24" height="24" fill="#D9D9D9"/>
</mask>
<g mask="url(#mask0_16_149)">
<mask id="mask1_16_149" style="mask-type:alpha" maskUnits="userSpaceOnUse" x="0" y="0" width="24" height="24">
<rect width="24" height="24" fill="#D9D9D9"/>
</mask>
<g mask="url(#mask1_16_149)">
<path d="M9.05422 21.4805H4.99997C4.3178 21.4805 3.73389 21.2376 3.24822 20.7518C2.76239 20.2661 2.51947 19.6822 2.51947 19V14.9458C3.2253 14.9458 3.83114 14.7128 4.33697 14.2468C4.84264 13.7808 5.09547 13.1985 5.09547 12.5C5.09547 11.8015 4.84264 11.2193 4.33697 10.7533C3.83114 10.2873 3.2253 10.0543 2.51947 10.0543V6C2.51947 5.31783 2.76239 4.73392 3.24822 4.24825C3.73389 3.76242 4.3178 3.5195 4.99997 3.5195H8.59022C8.69389 2.763 9.0203 2.14075 9.56947 1.65275C10.1188 1.16458 10.7623 0.920502 11.5 0.920502C12.2376 0.920502 12.8811 1.16458 13.4305 1.65275C13.9796 2.14075 14.3061 2.763 14.4097 3.5195H18C18.6821 3.5195 19.2661 3.76242 19.7517 4.24825C20.2376 4.73392 20.4805 5.31783 20.4805 6V9.59025C21.237 9.69392 21.8592 10.0203 22.3472 10.5695C22.8354 11.1188 23.0795 11.7623 23.0795 12.5C23.0795 13.2377 22.8354 13.8812 22.3472 14.4305C21.8592 14.9797 21.237 15.3061 20.4805 15.4098V19C20.4805 19.6822 20.2376 20.2661 19.7517 20.7518C19.2661 21.2376 18.6821 21.4805 18 21.4805H13.9457C13.9457 20.7037 13.7079 20.0448 13.2322 19.5038C12.7567 18.9629 12.1793 18.6925 11.5 18.6925C10.8206 18.6925 10.2432 18.9635 9.76772 19.5055C9.29205 20.0477 9.05422 20.706 9.05422 21.4805Z" fill="#1C1B1F"/>
</g>
</g>
</svg>
